:SAMPLES-PER-SECOND 30
:FULLY-SPECIFIED
:DEGREES
291
root  -38.0714 34.4862 7.70389 -175.698 65.8238 -179.288
RightUpLeg  -9.71349 -21.5353 -4.63475
RightLeg  20.0667 -8.92021 -2.61008
RightFoot  2.52445 0.0150529 -0.209839
RightToes  -26.8349 -0.122744 -0.229377
Spine  0.274627 0.302965 -0.437728
Spine1  0.546361 0.63126 -0.149245
HEad  -63.1728 -9.49144 6.67378
LeftShoulder1  -1.94126e-019 -3.10601e-018 -2.51263e-017
LeftArm  0.0671597 17.7675 -80.2719
LeftForeArm  33.0761 -31.2801 -4.98757
LeftHand  -0.372347 -2.64131 5.60249
RightShoulder  -4.96962e-017 0 -2.36833e-017
RightArm  -20.1039 -21.469 76.6771
RightForeArm  59.4284 12.2898 1.44391
RightHand  -0.34547 -1.78585 -10.9585
LeftUpLeg  -14.4355 8.54307 0.848553
LeftLeg  23.9151 13.3555 4.86306
LeftFoot  -0.269789 -0.00267941 0.082794
LeftToes  -15.7887 1.83942e-006 5.51297e-008
292
root  -38.3477 34.4916 7.44365 -176.207 65.1892 -179.582
RightUpLeg  -10.2499 -21.5249 -5.29037
RightLeg  21.2699 -9.63807 -3.03784
RightFoot  3.35689 0.0283006 -0.390195
RightToes  -27.6745 -0.12824 -0.235483
Spine  0.41089 0.394227 -0.796727
Spine1  0.816391 0.816821 -0.853427
HEad  -63.7808 -10.0592 5.41741
LeftShoulder1  -1.94126e-019 -3.10601e-018 -2.51263e-017
LeftArm  -0.390305 17.7124 -79.9549
LeftForeArm  32.7799 -31.3934 -5.02778
LeftHand  -0.36821 -2.74448 5.47957
RightShoulder  -4.96962e-017 0 -2.36833e-017
RightArm  -19.475 -20.2752 76.9831
RightForeArm  59.5049 12.4406 1.4275
RightHand  -0.361483 -1.59907 -10.9318
LeftUpLeg  -14.3418 8.80588 0.172042
LeftLeg  23.4856 12.6136 4.49292
LeftFoot  -0.310663 -0.00349868 0.0808551
LeftToes  -15.2084 1.83942e-006 5.51297e-008
293
root  -38.608 34.4961 7.17295 -176.278 64.3125 -179.516
RightUpLeg  -10.6075 -22.258 -5.92638
RightLeg  22.16 -9.52007 -3.16396
RightFoot  4.37747 0.0438637 -0.567741
RightToes  -29.0041 -0.137124 -0.244985
Spine  0.488326 0.284538 -1.0311
Spine1  0.968909 0.598524 -1.31398
HEad  -64.5592 -10.2317 3.43439
LeftShoulder1  -1.94126e-019 -3.10601e-018 -2.51263e-017
LeftArm  -1.2461 18.2215 -79.7258
LeftForeArm  32.213 -31.2649 -5.02614
LeftHand  -0.390706 -2.6306 5.87518
RightShoulder  -4.96962e-017 0 -2.36833e-017
RightArm  -18.0245 -19.3038 77.1386
RightForeArm  58.0526 13.6848 1.50574
RightHand  -0.34486 -1.79504 -10.9656
LeftUpLeg  -14.4937 8.81783 -0.397737
LeftLeg  23.3718 11.8911 4.21381
LeftFoot  -0.493604 -0.0026126 0.0465271
LeftToes  -14.2733 1.83942e-006 5.51297e-008
294
root  -38.8876 34.4916 6.99165 -175.863 63.9652 -178.99
RightUpLeg  -11.0944 -22.4427 -6.15237
RightLeg  22.7595 -9.35467 -3.21841
RightFoot  5.37283 0.0616575 -0.731974
RightToes  -30.2364 -0.145552 -0.253606
Spine  0.538657 0.359461 -1.18215
Spine1  1.06444 0.752176 -1.61429
HEad  -65.5581 -10.7653 1.59217
LeftShoulder1  -1.94126e-019 -3.10601e-018 -2.51263e-017
LeftArm  -1.66745 18.6546 -79.3914
LeftForeArm  31.0158 -30.5861 -4.93049
LeftHand  -0.396731 -2.36697 6.14593
RightShoulder  -4.96962e-017 0 -2.36833e-017
RightArm  -16.6401 -18.5466 77.3354
RightForeArm  55.4835 15.914 1.61413
RightHand  -0.326887 -1.75049 -10.2582
LeftUpLeg  -14.8991 8.81203 -0.700566
LeftLeg  23.6147 11.6885 4.19849
LeftFoot  -0.757699 -0.00112626 -0.00882076
LeftToes  -13.0185 1.83942e-006 5.51297e-008
295
root  -39.1346 34.4937 6.82668 -175.31 63.7844 -178.444
RightUpLeg  -11.4683 -23.2977 -6.31381
RightLeg  22.8571 -8.52832 -2.95359
RightFoot  6.27939 0.0755366 -0.797874
RightToes  -31.2197 -0.15241 -0.260353
Spine  0.472376 0.430955 -1.34572
Spine1  0.926049 0.897735 -1.94005
HEad  -66.3646 -11.4747 0.0262884
LeftShoulder1  -1.94126e-019 -3.10601e-018 -2.51263e-017
LeftArm  -1.73313 19.1431 -78.884
LeftForeArm  30.2457 -29.116 -4.64212
LeftHand  -0.389024 -2.16639 6.17564
RightShoulder  -4.96962e-017 0 -2.36833e-017
RightArm  -13.9057 -17.9991 77.5792
RightForeArm  53.6552 18.2102 1.71949
RightHand  -0.311005 -1.96989 -10.3473
LeftUpLeg  -15.2126 8.12685 -0.961706
LeftLeg  23.6288 12.2722 4.40775
LeftFoot  -0.935712 -0.00179289 -0.0580417
LeftToes  -11.7963 1.83942e-006 5.51297e-008
296
root  -39.3533 34.5119 6.7051 -174.71 64.2019 -177.874
RightUpLeg  -11.769 -23.8452 -6.34431
RightLeg  22.5001 -7.43922 -2.52809
RightFoot  7.22884 0.0871477 -0.805395
RightToes  -32.1355 -0.158899 -0.266531
Spine  0.35945 0.558589 -1.57532
Spine1  0.692716 1.153 -2.39479
HEad  -66.9813 -11.9371 -1.31732
LeftShoulder1  -1.94126e-019 -3.10601e-018 -2.51263e-017
LeftArm  -2.04411 19.6594 -78.0795
LeftForeArm  30.6231 -26.9013 -4.25424
LeftHand  -0.373542 -2.13112 5.96266
RightShoulder  -4.96962e-017 0 -2.36833e-017
RightArm  -12.2589 -17.1872 78.2784
RightForeArm  52.9114 20.2173 1.88572
RightHand  -0.277232 -2.29901 -10.127
LeftUpLeg  -15.3574 7.92025 -1.11091
LeftLeg  23.4251 12.9344 4.58968
LeftFoot  -1.06353 -0.00216986 -0.100301
LeftToes  -11.1327 1.83942e-006 5.51297e-008
297
root  -39.5271 34.5443 6.61188 -173.872 64.9512 -176.983
RightUpLeg  -11.8526 -24.2846 -6.15027
RightLeg  21.7391 -6.28133 -2.04461
RightFoot  8.1432 0.0944917 -0.759015
RightToes  -32.5153 -0.16162 -0.269062
Spine  0.19363 0.635193 -1.83241
Spine1  0.354745 1.30196 -2.90279
HEad  -67.7865 -11.8879 -2.20798
LeftShoulder1  -1.94126e-019 -3.10601e-018 -2.51263e-017
LeftArm  -2.53522 20.4761 -76.9472
LeftForeArm  31.7571 -24.2663 -3.88666
LeftHand  -0.380019 -2.20944 6.00609
RightShoulder  -4.96962e-017 0 -2.36833e-017
RightArm  -10.6637 -16.3188 79.2898
RightForeArm  52.5951 21.854 2.10148
RightHand  -0.298119 -1.94718 -9.84247
LeftUpLeg  -15.3385 8.27326 -1.03645
LeftLeg  23.1523 13.3731 4.6714
LeftFoot  -1.18639 -0.00311478 -0.139313
LeftToes  -11.6027 1.83942e-006 5.51297e-008
298
root  -39.6568 34.5852 6.5954 -172.598 66.2046 -175.436
RightUpLeg  -11.6355 -23.7192 -5.59533
RightLeg  20.5495 -5.57864 -1.68961
RightFoot  9.14112 0.10546 -0.754175
RightToes  -32.7434 -0.163262 -0.270634
Spine  0.0575202 0.782621 -2.04172
Spine1  0.0741088 1.59236 -3.31587
HEad  -68.6417 -11.6015 -3.01283
LeftShoulder1  -1.94126e-019 -3.10601e-018 -2.51263e-017
LeftArm  -3.60022 21.3566 -75.7642
LeftForeArm  33.4961 -21.1321 -3.46629
LeftHand  -0.393614 -2.16802 6.24502
RightShoulder  -4.96962e-017 0 -2.36833e-017
RightArm  -8.98654 -15.4252 80.3862
RightForeArm  52.7628 23.2633 2.33999
RightHand  -0.362513 -1.25145 -10.078
LeftUpLeg  -15.1323 9.75074 -0.568463
LeftLeg  22.921 13.254 4.57155
LeftFoot  -1.44094 -0.00453544 -0.19913
LeftToes  -12.1343 1.83942e-006 5.51297e-008
299
root  -39.7833 34.6322 6.60771 -171.221 67.6755 -173.692
RightUpLeg  -11.3765 -23.3338 -5.03862
RightLeg  19.3914 -4.41695 -1.24196
RightFoot  10.1252 0.106253 -0.640487
RightToes  -32.8789 -0.164501 -0.271871
Spine  -0.0492393 0.865697 -2.19423
Spine1  -0.146884 1.7565 -3.61605
HEad  -69.8473 -10.9294 -3.68269
LeftShoulder1  -1.94126e-019 -3.10601e-018 -2.51263e-017
LeftArm  -5.07788 22.2753 -74.6745
LeftForeArm  34.5993 -17.5281 -2.95699
LeftHand  -0.404423 -2.05409 6.50086
RightShoulder  -4.96962e-017 0 -2.36833e-017
RightArm  -8.09895 -14.4598 81.7139
RightForeArm  52.8931 24.9103 2.65983
RightHand  -0.350251 -1.26469 -9.76197
LeftUpLeg  -14.7526 11.2223 -0.0401598
LeftLeg  22.5987 13.4456 4.55286
LeftFoot  -1.7361 -0.00665316 -0.277571
LeftToes  -12.5026 1.83942e-006 5.51297e-008
300
root  -39.9238 34.6776 6.63916 -169.576 69.2549 -171.496
RightUpLeg  -10.9443 -22.6182 -4.4777
RightLeg  18.2202 -3.21255 -0.833409
RightFoot  11.1385 0.100735 -0.480621
RightToes  -33.1395 -0.165593 -0.272806
Spine  -0.066606 1.18081 -2.15605
Spine1  -0.18697 2.38514 -3.52703
HEad  -71.4671 -10.8477 -4.62175
LeftShoulder1  -1.94126e-019 -3.10601e-018 -2.51263e-017
LeftArm  -6.78526 22.7442 -74.3061
LeftForeArm  35.6539 -13.2644 -2.2837
LeftHand  -0.413725 -1.91176 6.76487
RightShoulder  -4.96962e-017 0 -2.36833e-017
RightArm  -6.13537 -14.1034 81.9697
RightForeArm  52.7435 27.7357 3.24371
RightHand  -0.357813 -0.948367 -9.29773
LeftUpLeg  -14.2683 12.3954 0.608807
LeftLeg  22.4622 14.0475 4.71518
LeftFoot  -2.07279 -0.00988388 -0.384812
LeftToes  -12.6948 1.83942e-006 5.51297e-008
301
root  -40.1018 34.7173 6.66591 -168.127 70.5938 -169.624
RightUpLeg  -10.7204 -22.1158 -4.07977
RightLeg  17.3201 -1.81853 -0.441806
RightFoot  12.0584 0.0823761 -0.235066
RightToes  -33.4163 -0.166437 -0.273475
Spine  0.0715098 1.18116 -2.38075
Spine1  0.0746771 2.4054 -3.98397
HEad  -74.0859 -9.97648 -4.79735
LeftShoulder1  -1.94126e-019 -3.10601e-018 -2.51263e-017
LeftArm  -7.93007 23.1843 -72.9514
LeftForeArm  35.9735 -10.9063 -1.90565
LeftHand  -0.413065 -1.81101 6.84116
RightShoulder  -4.96962e-017 0 -2.36833e-017
RightArm  -4.52354 -12.9374 83.0006
RightForeArm  54.2797 29.3762 3.5205
RightHand  -0.419442 0.0450487 -9.00777
LeftUpLeg  -13.9331 13.1463 1.03062
LeftLeg  22.3072 14.7016 4.88566
LeftFoot  -2.46347 -0.0146101 -0.517951
LeftToes  -11.5495 1.83942e-006 5.51297e-008
